<?xml version="1.0" standalone="no"?>
<!DOCTYPE svg PUBLIC "-//W3C//DTD SVG 20010904//EN"
 "http://www.w3.org/TR/2001/REC-SVG-20010904/DTD/svg10.dtd">
<svg version="1.0" xmlns="http://www.w3.org/2000/svg"
 width="1074.000000pt" height="1174.000000pt" viewBox="0 0 1074.000000 1174.000000"
 preserveAspectRatio="xMidYMid meet">

<g transform="translate(0.000000,1174.000000) scale(0.100000,-0.100000)"
fill="#000000" stroke="none">
<path d="M4970 11723 c-129 -8 -237 -17 -239 -19 -5 -5 38 -796 43 -801 2 -2
118 3 257 12 140 8 264 15 277 15 17 0 22 6 22 26 l0 27 -142 -7 c-79 -4 -175
-9 -214 -13 l-71 -5 -10 178 c-5 99 -9 180 -7 182 1 2 211 19 277 22 4 0 7 11
7 25 l0 26 -132 -6 c-73 -4 -138 -8 -145 -10 -8 -3 -13 29 -17 103 -4 59 -8
124 -10 144 -4 35 -2 38 27 42 18 3 95 8 172 11 205 8 225 12 225 41 0 28 22
28 -320 7z"/>
<path d="M5865 11688 c-8 -34 -115 -772 -112 -774 1 -1 98 -16 214 -34 228
-34 274 -33 350 2 73 34 123 109 123 186 0 62 -57 142 -123 172 -42 19 -41 21
13 39 108 34 153 164 92 262 -34 52 -117 101 -202 118 -54 11 -322 51 -340 51
-5 0 -12 -10 -15 -22z m229 -63 c153 -27 216 -76 216 -168 0 -93 -55 -148
-148 -149 -26 0 -85 6 -130 12 -83 12 -84 13 -79 39 3 14 13 83 23 154 10 70
21 127 25 127 3 0 46 -7 93 -15z m21 -370 c74 -17 139 -57 159 -99 34 -72 13
-166 -46 -201 -52 -30 -104 -35 -223 -19 -60 7 -110 14 -111 14 -1 0 9 69 22
153 13 83 23 158 24 165 0 16 78 10 175 -13z"/>
<path d="M4314 11653 c-14 -3 -82 -82 -190 -223 -126 -164 -170 -215 -175
-202 -4 9 -21 86 -39 170 -37 169 -29 161 -120 140 -28 -6 -49 -16 -47 -22 3
-6 41 -182 87 -391 45 -209 84 -382 86 -384 5 -5 124 21 128 28 1 3 -16 92
-40 196 -23 105 -40 192 -38 194 1 2 119 -64 262 -147 l259 -150 69 14 c38 8
75 17 83 19 8 3 -116 81 -282 178 -164 94 -297 174 -297 177 0 3 62 84 136
180 187 242 179 230 157 229 -10 -1 -28 -4 -39 -6z"/>
<path d="M6792 11508 c-5 -18 -58 -190 -117 -382 -74 -241 -104 -351 -96 -355
18 -12 521 -165 525 -160 2 2 6 13 10 25 6 19 -8 25 -186 79 -106 32 -198 61
-204 64 -8 4 3 55 37 166 27 88 51 165 53 172 3 8 45 -1 132 -28 71 -22 134
-37 141 -35 7 3 13 14 13 24 0 15 -23 26 -130 58 -84 25 -130 44 -130 53 0 19
71 244 80 254 4 5 97 -18 206 -52 109 -33 199 -59 200 -58 1 1 5 12 8 24 7 20
-1 24 -126 63 -73 23 -189 59 -258 81 -69 21 -131 39 -137 39 -7 0 -16 -15
-21 -32z"/>
<path d="M3365 11401 c-31 -11 -49 -23 -48 -32 5 -26 254 -734 262 -742 4 -4
34 2 67 13 l61 21 -132 377 c-84 238 -137 378 -146 379 -8 1 -36 -6 -64 -16z"/>
<path d="M7475 11018 c-65 -139 -142 -303 -171 -364 l-52 -111 248 -116 c137
-65 253 -117 258 -117 10 0 28 39 20 44 -1 1 -87 42 -190 90 -104 49 -188 90
-188 92 0 4 148 316 152 320 3 2 61 -23 129 -55 113 -55 125 -59 137 -43 7 9
11 20 9 25 -1 5 -58 34 -125 65 -67 32 -122 60 -122 65 0 18 120 258 127 254
4 -3 91 -44 192 -91 183 -86 207 -92 198 -48 -2 12 -474 242 -495 242 -4 0
-61 -114 -127 -252z"/>
<path d="M2683 11112 c-29 -14 -53 -30 -53 -34 0 -7 281 -612 320 -688 l20
-39 228 108 c288 136 263 121 249 148 -12 21 -15 20 -195 -64 -100 -47 -184
-84 -186 -82 -1 2 -74 156 -161 342 -87 185 -161 337 -164 336 -3 0 -30 -12
-58 -27z"/>
<path d="M8123 10556 l-222 -334 56 -37 c30 -20 59 -33 63 -28 4 4 49 71 100
148 51 77 96 144 100 148 4 5 24 -2 43 -15 44 -28 44 -29 53 -278 4 -107 10
-203 13 -213 6 -15 121 -101 127 -94 1 1 -4 106 -12 232 -7 127 -13 235 -14
242 0 8 9 9 32 2 76 -21 174 -4 221 39 32 29 57 89 57 137 0 100 -48 158 -241
291 -75 52 -141 94 -146 94 -4 0 -108 -151 -230 -334z m382 173 c78 -53 98
-81 103 -145 4 -44 0 -61 -21 -97 -59 -99 -191 -103 -316 -8 l-23 18 91 136
c50 76 95 137 99 137 4 0 34 -18 67 -41z"/>
<path d="M2055 10744 c-27 -19 -50 -40 -49 -47 1 -11 411 -635 433 -659 9 -11
113 61 109 75 -3 11 -423 644 -437 659 -3 3 -28 -9 -56 -28z"/>
<path d="M610 3533 c-52 -118 -99 -217 -103 -220 -5 -3 -21 6 -35 20 -45 42
-93 61 -154 61 -47 1 -64 -4 -99 -29 -80 -57 -106 -162 -65 -268 13 -34 149
-292 171 -325 2 -3 693 383 702 392 5 5 -55 116 -63 116 -2 0 -77 -41 -166
-90 -121 -68 -164 -87 -170 -78 -45 66 -48 52 58 285 l98 215 -34 61 c-18 34
-36 65 -39 69 -3 3 -49 -90 -101 -209z m-155 -282 c47 -22 72 -48 114 -118
l30 -53 -22 -14 c-54 -33 -261 -146 -268 -146 -15 0 -79 130 -85 172 -8 61 27
124 86 155 52 28 92 29 145 4z"/>
<path d="M9855 3650 c-5 -15 32 -63 165 -217 128 -148 166 -199 153 -201 -10
-1 -128 11 -263 27 -225 28 -246 29 -257 14 -10 -13 -10 -20 0 -32 207 -244
551 -641 557 -641 4 0 12 11 18 25 11 25 2 38 -199 271 -116 135 -209 247
-207 249 2 2 131 -12 287 -31 156 -19 285 -33 287 -31 2 1 -82 102 -185 222
-104 121 -188 221 -187 222 1 1 143 -16 316 -37 173 -22 320 -40 325 -40 6 0
25 27 43 60 19 33 30 60 27 60 -4 0 -191 23 -417 50 -226 28 -421 50 -433 50
-15 0 -26 -8 -30 -20z"/>
<path d="M885 2667 c-110 -215 -201 -400 -203 -410 -2 -9 3 -20 11 -23 15 -5
873 189 885 200 3 4 -4 16 -15 28 l-22 21 -126 -27 c-69 -15 -133 -30 -143
-33 -13 -3 -45 30 -125 131 l-107 135 67 134 66 135 -39 50 c-21 28 -41 51
-44 51 -3 1 -95 -176 -205 -392z m305 -258 c0 -7 -321 -81 -327 -75 -3 2 30
72 72 155 l77 151 89 -112 c49 -62 89 -116 89 -119z"/>
<path d="M9370 2839 c-24 -28 -39 -54 -33 -58 5 -3 71 -57 147 -120 83 -70
135 -120 132 -128 -3 -7 -60 -78 -127 -158 -105 -126 -123 -144 -137 -133 -9
7 -74 61 -145 121 -70 59 -132 107 -136 107 -4 0 -26 -22 -49 -49 l-41 -48
305 -254 c167 -140 308 -255 313 -257 5 -2 27 19 50 47 l41 49 -140 117 c-84
70 -137 122 -133 129 16 27 246 296 252 296 4 0 69 -52 144 -115 l136 -114 40
47 c22 26 41 50 43 53 3 6 -605 519 -614 519 -3 0 -24 -23 -48 -51z"/>
<path d="M1609 2374 c-14 -17 -19 -11 214 -233 l77 -73 -25 -30 c-14 -16 -69
-76 -122 -134 l-98 -104 -60 58 c-149 143 -143 138 -163 118 -16 -17 -13 -22
86 -115 l102 -98 -98 -104 -99 -104 -71 65 c-39 36 -110 101 -157 144 -82 75
-87 78 -103 62 -19 -19 -10 -29 289 -307 l106 -98 272 292 c150 161 273 295
272 300 -1 9 -393 377 -402 377 -4 0 -13 -7 -20 -16z"/>
<path d="M8614 2040 c-115 -99 -209 -185 -209 -192 0 -6 7 -15 16 -21 13 -8
47 17 174 127 87 75 162 133 166 129 4 -5 57 -66 119 -137 l111 -129 -25 -21
c-127 -106 -186 -161 -183 -170 2 -5 10 -14 19 -19 12 -8 37 8 116 77 55 48
102 89 105 89 5 2 187 -205 187 -213 0 -4 -70 -66 -155 -139 -85 -74 -155
-139 -155 -146 0 -7 6 -18 14 -24 10 -9 56 26 217 165 112 97 208 180 213 184
4 5 -110 145 -254 312 -145 166 -264 304 -265 306 -2 2 -97 -78 -211 -178z"/>
<path d="M1986 1538 c-215 -319 -228 -342 -210 -355 10 -7 23 -12 29 -10 5 2
82 110 170 241 123 183 161 233 167 219 4 -10 30 -187 58 -393 41 -294 55
-377 68 -387 48 -37 37 -49 273 303 213 319 223 336 204 350 -10 8 -22 14 -27
14 -4 0 -84 -115 -178 -255 -94 -140 -174 -257 -178 -259 -4 -2 -31 188 -61
422 -49 388 -60 453 -80 452 -3 0 -109 -154 -235 -342z"/>
<path d="M8236 1735 c-21 -16 -34 6 200 -370 62 -99 109 -181 106 -182 -4 -2
-189 53 -412 122 -222 69 -410 125 -417 125 -6 0 -15 -4 -18 -10 -4 -7 395
-669 424 -702 3 -4 16 1 29 11 l23 17 -154 250 c-85 137 -154 250 -152 252 1
1 172 -47 380 -109 374 -110 378 -111 411 -95 19 8 34 19 34 23 -1 14 -415
676 -425 679 -6 2 -19 -3 -29 -11z"/>
<path d="M3228 1220 c-87 -26 -152 -107 -152 -190 0 -65 32 -123 141 -258 52
-64 103 -133 114 -154 39 -77 14 -147 -61 -169 -49 -15 -95 -6 -153 31 -54 34
-85 88 -94 161 l-6 50 -36 -3 -36 -3 3 -50 c7 -109 89 -195 224 -236 120 -37
226 -2 275 90 49 94 23 180 -101 329 -110 133 -136 176 -136 232 0 74 49 120
127 120 43 0 117 -31 151 -63 33 -31 61 -89 69 -142 6 -45 6 -45 44 -45 44 0
45 2 28 79 -21 98 -101 172 -228 211 -66 21 -126 24 -173 10z"/>
<path d="M7062 1129 c-208 -73 -265 -101 -306 -150 -105 -124 -54 -295 97
-329 26 -5 59 -7 74 -4 26 7 26 7 -10 -41 -51 -66 -61 -108 -42 -172 28 -93
111 -140 228 -130 33 3 139 32 242 68 l183 62 -53 151 c-29 83 -87 252 -130
376 -43 124 -81 228 -84 231 -3 4 -93 -24 -199 -62z m146 -191 c29 -83 49
-155 45 -159 -5 -4 -53 -21 -108 -39 -155 -49 -231 -34 -282 56 -46 79 -20
161 65 211 48 28 185 81 212 82 11 1 31 -43 68 -151z m123 -353 c26 -77 45
-143 41 -147 -17 -15 -177 -58 -218 -58 -97 0 -154 53 -154 143 0 60 20 99 64
127 37 22 195 80 210 76 5 -1 30 -65 57 -141z"/>
<path d="M3869 978 c-6 -24 -53 -193 -105 -376 -52 -183 -94 -339 -94 -346 0
-11 118 -53 125 -44 4 5 215 759 215 768 0 8 -95 40 -119 40 -5 0 -15 -19 -22
-42z"/>
<path d="M6170 892 c-135 -25 -247 -47 -249 -48 -1 -2 1 -14 5 -27 l9 -24 204
38 c113 21 206 37 208 35 4 -4 63 -325 63 -342 0 -7 -47 -20 -122 -34 -164
-29 -156 -26 -150 -56 4 -21 9 -24 31 -20 116 23 253 47 255 44 4 -6 46 -246
46 -265 0 -16 -21 -22 -157 -46 -255 -46 -253 -45 -253 -73 0 -13 4 -24 9 -24
14 0 543 99 546 102 2 2 -29 180 -68 395 l-72 393 -30 -1 c-16 -1 -140 -22
-275 -47z"/>
<path d="M4419 808 c27 -46 83 -140 124 -210 l75 -127 -51 -15 c-72 -21 -121
-58 -146 -109 -54 -112 0 -226 132 -275 41 -16 386 -67 393 -59 2 2 80 710 87
777 2 24 -2 26 -61 33 -35 5 -65 7 -67 5 -4 -4 -45 -341 -45 -366 0 -4 -21 -5
-47 -2 l-48 5 -115 197 c-63 108 -119 201 -125 206 -5 5 -43 13 -83 16 l-72 7
49 -83z m425 -443 c0 -27 -6 -103 -13 -169 l-14 -118 -61 6 c-96 11 -129 23
-165 60 -27 28 -35 45 -39 85 -6 64 2 92 35 132 40 47 76 59 173 56 l85 -2 -1
-50z"/>
<path d="M5465 820 c-82 -4 -176 -8 -207 -9 -56 -1 -58 -2 -58 -27 l0 -26 215
7 215 7 0 -89 c0 -50 3 -131 6 -180 l7 -90 -147 -8 c-124 -6 -146 -10 -142
-22 3 -8 6 -19 6 -25 0 -8 43 -9 139 -5 l138 6 7 -67 c3 -37 6 -101 6 -143 l0
-76 -77 -7 c-42 -3 -115 -6 -163 -6 -48 0 -108 -3 -134 -6 -41 -6 -46 -10 -46
-32 l0 -25 118 7 c64 3 190 9 280 12 l162 7 0 31 c0 17 -7 186 -15 376 -8 190
-15 357 -15 373 l0 27 -72 -2 c-40 -1 -140 -5 -223 -8z"/>
</g>
</svg>
